<svg width="32" height="32" viewBox="0 0 32 32" fill="none" xmlns="http://www.w3.org/2000/svg">
<path d="M14.4965 31.9685C14.4865 31.9523 14.2983 31.9349 14.0784 31.9297C13.8585 31.9245 13.4691 31.8853 13.2133 31.8427C10.9708 31.469 8.70423 30.6558 7.19408 29.683C6.91505 29.5032 6.85126 29.4338 6.89713 29.3596C6.93048 29.3057 7.04138 29.3331 7.68763 29.5549C7.99687 29.6611 8.47673 29.7971 8.75398 29.8572C9.22302 29.9587 9.31872 29.9663 10.1305 29.9664C11.3485 29.9664 11.7657 29.8975 13.0925 29.4768C15.6196 28.6755 16.2519 28.672 18.7623 29.4449C20.2041 29.8888 20.7712 29.9869 21.8936 29.9865C22.7102 29.9863 23.4777 29.8424 24.4003 29.5164C24.6455 29.4298 24.8921 29.3502 24.9482 29.3397C25.0579 29.3192 25.1112 29.3655 25.0778 29.4524C25.0269 29.5851 23.7375 30.305 22.9462 30.6426C21.4029 31.3009 19.0096 31.9105 17.9049 31.9267C17.6807 31.93 17.4874 31.9484 17.4754 31.9678C17.4491 32.0103 14.5227 32.0109 14.4965 31.9685ZM8.71516 28.8391C6.70608 28.5426 4.96429 27.6338 3.47931 26.1075C2.67039 25.2761 2.07289 24.4143 1.47046 23.21C0.682211 21.6344 0.120574 19.6021 0.0242921 17.9766C-0.00859023 17.4219 -0.00789225 14.3389 0.025184 13.8118C0.0926161 12.7375 0.485343 11.1603 1.02573 9.79314C1.23307 9.26853 1.78292 8.12497 2.04609 7.67106C2.12636 7.53256 2.21213 7.38437 2.23672 7.34175C2.76667 6.42142 3.7849 5.13091 4.68452 4.23932C5.49994 3.43119 6.28129 2.79996 7.22224 2.18922C7.51015 2.00237 7.78934 1.81974 7.84266 1.78336C8.03976 1.64892 9.23349 1.04454 9.66972 0.858302C10.6366 0.4455 11.7415 0.0836451 12.0707 0.0720224C12.1782 0.0681869 12.2753 0.0504428 12.2864 0.0325437C12.2974 0.0146447 12.3977 0 12.5092 0C12.6807 0 12.7128 0.0113516 12.7175 0.073727C12.722 0.133933 12.6611 0.166632 12.3864 0.251555C11.2363 0.607096 9.91576 1.23569 8.64227 2.03398C7.68546 2.63372 6.56385 3.57179 5.63632 4.54802C3.26018 7.04909 1.87753 10.0571 1.45681 13.6412C1.3748 14.3399 1.36398 16.1942 1.43816 16.853C1.89316 20.8963 3.64131 24.101 6.23348 25.6439C7.20114 26.2199 8.26408 26.5245 9.45192 26.5663C10.4146 26.6002 11.0303 26.4738 12.7716 25.8851C14.4089 25.3315 14.8523 25.2145 15.5695 25.1466C16.0482 25.1012 16.6148 25.1423 17.1702 25.2625C17.5012 25.3342 18.8803 25.7642 19.6307 26.0297C20.7853 26.4383 21.6409 26.5972 22.5195 26.5663C23.9592 26.5157 25.2192 26.0774 26.3647 25.2288C28.6112 23.5646 30.128 20.516 30.5321 16.8531C30.5979 16.2567 30.5985 14.445 30.533 13.8312C30.2445 11.1229 29.4455 8.82594 28.0602 6.72195C26.7006 4.65705 24.7739 2.84111 22.6358 1.60929C21.76 1.1047 20.4326 0.51423 19.5822 0.250974C19.3131 0.167678 19.2429 0.130872 19.2429 0.0729909C19.2429 0.0114291 19.2728 7.74851e-05 19.4345 7.74851e-05C19.5399 7.74851e-05 19.6349 0.0144897 19.6459 0.0321176C19.6567 0.0497067 19.7647 0.0681481 19.8858 0.0730297C20.4291 0.0949967 22.1609 0.73882 23.3403 1.35727C27.1089 3.33356 29.8636 6.56256 31.2524 10.6319C31.6141 11.6918 31.9124 13.059 31.9251 13.7149C31.929 13.9181 31.9518 14.108 31.976 14.1388C32.0102 14.1825 32.0083 14.1879 31.9674 14.1632C31.9249 14.1377 31.9234 14.1473 31.9591 14.2141C32.0129 14.3145 31.9923 17.1609 31.9308 18.1121C31.8848 18.8257 31.7597 19.5387 31.5164 20.4754C30.7026 23.6087 29.0155 26.1044 26.7267 27.5609C25.9114 28.0797 24.7114 28.5651 23.7765 28.7543C23.3854 28.8334 23.2231 28.8439 22.3838 28.8439C21.118 28.8439 20.5038 28.7394 18.7776 28.2307C16.9628 27.6959 16.7262 27.6464 15.9857 27.6464C15.245 27.6464 15.0078 27.6961 13.1938 28.2308C11.5287 28.7215 10.946 28.8249 9.74266 28.8428C9.24152 28.8502 8.77907 28.8486 8.71516 28.8391ZM8.85088 25.2619C8.07485 25.1772 7.44636 24.9901 6.69879 24.6214C5.68766 24.1226 4.83598 23.3409 4.10209 22.2382C3.75505 21.7167 3.45019 21.1598 3.47566 21.0936C3.51754 20.9845 3.66485 21.0382 3.88658 21.2432C4.3712 21.6915 5.48207 22.5095 5.60627 22.5095C5.62798 22.5095 5.67327 22.5342 5.70693 22.5644C5.78972 22.6386 6.43728 22.9205 6.79573 23.0382C7.51476 23.2745 8.44295 23.3833 9.21926 23.3222C10.1304 23.2505 10.7793 23.0971 11.7979 22.7128C13.4031 22.1071 14.26 21.8959 15.4551 21.8113C16.3448 21.7482 17.3883 21.8488 18.3317 22.0885C18.7877 22.2044 19.2939 22.3701 20.0573 22.6536C20.8841 22.9606 21.3442 23.0989 21.8838 23.2024C23.6927 23.5496 25.3556 23.23 26.8431 22.2493C27.2939 21.9521 27.9424 21.4406 28.1791 21.1958C28.3372 21.0322 28.4938 20.9876 28.5349 21.0945C28.5748 21.1984 27.9956 22.1747 27.5461 22.7612C27.2987 23.0842 26.7599 23.6386 26.436 23.9036C25.6531 24.5441 24.6464 25.0074 23.6053 25.2063C23.1239 25.2983 21.9692 25.2991 21.4338 25.2079C20.8401 25.1068 20.2183 24.93 19.5144 24.6623C17.9522 24.0683 17.1639 23.8959 16.0051 23.8948C15.5067 23.8944 15.2296 23.9143 14.8689 23.9765C14.0087 24.1249 13.6688 24.226 12.1976 24.7722C11.6616 24.9712 11.1322 25.1128 10.5952 25.201C10.1505 25.2741 9.24985 25.3055 8.85088 25.2619Z" fill="white"/>
<path d="M13.2912 18.9374L9.29722 9.3987C9.0137 8.74205 8.73018 8.287 8.44666 8.03356C8.16314 7.78011 7.83648 7.63035 7.46667 7.58427V7.23866C7.51597 7.23866 7.63924 7.2329 7.83648 7.22138C8.02138 7.20986 8.15698 7.2041 8.24327 7.2041C8.67471 7.2041 9.11848 7.25018 9.57458 7.34234C10.0307 7.42299 10.4621 7.61883 10.8689 7.92987C11.2757 8.24092 11.6209 8.73053 11.9044 9.3987L14.4006 15.3604L16.0647 10.9366L15.4176 9.3987C15.134 8.74205 14.8259 8.287 14.493 8.03356C14.1725 7.78011 13.8274 7.63035 13.4576 7.58427V7.23866C13.5069 7.23866 13.6178 7.2329 13.7904 7.22138C13.963 7.20986 14.0924 7.2041 14.1787 7.2041C14.6101 7.2041 15.0539 7.25018 15.51 7.34234C15.9661 7.43451 16.3975 7.63611 16.8043 7.94715C17.2111 8.24668 17.5563 8.73053 17.8398 9.3987L20.4839 15.6887L23.6458 7.3769H24.5333L20.1511 18.9374H19.4115L16.564 12.1636L14.0308 18.9374H13.2912Z" fill="white"/>
</svg>
